# xmcd
#
# Track frame offsets: 
#        150
#        12646
#        31277
#        45855
#        63390
#        76994
#        99226
#        122259
#        139883
#        159850
#        180220
#
# Disc length: 2573 seconds
#
# Revision: 0
# Processed by: cddbd v1.5.2PL0 Copyright (c) Steve Scherf et al.
# Submitted via: ExactAudioCopy v0.95b4
#
DISCID=750a0b0b
DTITLE=Gina Sicilia - Allow me to confess
DYEAR=2007
DGENRE=Blues
TTITLE0=That's a pretty good love
TTITLE1=I ain't crazy
TTITLE2=Try me
TTITLE3=One of many
TTITLE4=Pushover
TTITLE5=Rest of my days
TTITLE6=Allow me to confess
TTITLE7=You set my heart on fire
TTITLE8=There lies a better day
TTITLE9=That much further
TTITLE10=When my ship comes in
EXTD=
EXTT0=
EXTT1=
EXTT2=
EXTT3=
EXTT4=
EXTT5=
EXTT6=
EXTT7=
EXTT8=
EXTT9=
EXTT10=
PLAYORDER=
